<svg width="89" height="58" viewBox="0 0 89 58" fill="none" xmlns="http://www.w3.org/2000/svg">
<path d="M33.9274 15.8785C34.4582 16.4093 34.4582 17.27 33.9274 17.8008C33.3966 18.3316 32.5359 18.3316 32.0051 17.8008C31.4742 17.27 31.4742 16.4093 32.0051 15.8785C32.5359 15.3476 33.3966 15.3476 33.9274 15.8785Z" fill="#79296B"/>
<path d="M41.6167 15.8785C42.1475 16.4093 42.1475 17.27 41.6167 17.8008C41.0859 18.3316 40.2252 18.3316 39.6944 17.8008C39.1635 17.27 39.1635 16.4093 39.6944 15.8785C40.2252 15.3476 41.0859 15.3476 41.6167 15.8785Z" fill="#79296B"/>
<path d="M49.306 15.8785C49.8368 16.4093 49.8368 17.27 49.306 17.8008C48.7752 18.3316 47.9145 18.3316 47.3837 17.8008C46.8528 17.27 46.8528 16.4093 47.3837 15.8785C47.9145 15.3476 48.7752 15.3476 49.306 15.8785Z" fill="#79296B"/>
<path d="M56.9953 15.8785C57.5261 16.4093 57.5261 17.27 56.9953 17.8008C56.4645 18.3316 55.6038 18.3316 55.073 17.8008C54.5421 17.27 54.5421 16.4093 55.073 15.8785C55.6038 15.3476 56.4645 15.3476 56.9953 15.8785Z" fill="#79296B"/>
<path d="M37.772 21.6455C38.3029 22.1763 38.3029 23.037 37.772 23.5678C37.2412 24.0986 36.3805 24.0986 35.8497 23.5678C35.3189 23.037 35.3189 22.1763 35.8497 21.6455C36.3805 21.1146 37.2412 21.1146 37.772 21.6455Z" fill="#79296B"/>
<path d="M45.4613 21.6455C45.9922 22.1763 45.9922 23.037 45.4613 23.5678C44.9305 24.0986 44.0699 24.0986 43.539 23.5678C43.0082 23.037 43.0082 22.1763 43.539 21.6455C44.0699 21.1146 44.9305 21.1146 45.4613 21.6455Z" fill="#79296B"/>
<path d="M53.1506 21.6455C53.6815 22.1763 53.6815 23.037 53.1506 23.5678C52.6198 24.0986 51.7592 24.0986 51.2283 23.5678C50.6975 23.037 50.6975 22.1763 51.2283 21.6455C51.7592 21.1146 52.6198 21.1146 53.1506 21.6455Z" fill="#79296B"/>
<path d="M49.306 27.4124C49.8368 27.9433 49.8368 28.8039 49.306 29.3348C48.7752 29.8656 47.9145 29.8656 47.3837 29.3348C46.8528 28.8039 46.8528 27.9433 47.3837 27.4124C47.9145 26.8816 48.7752 26.8816 49.306 27.4124Z" fill="#79296B"/>
<path d="M41.6167 27.4124C42.1475 27.9433 42.1475 28.8039 41.6167 29.3348C41.0859 29.8656 40.2252 29.8656 39.6944 29.3348C39.1635 28.8039 39.1635 27.9433 39.6944 27.4124C40.2252 26.8816 41.0859 26.8816 41.6167 27.4124Z" fill="#79296B"/>
<path d="M45.4613 33.1794C45.9922 33.7103 45.9922 34.5709 45.4613 35.1017C44.9305 35.6326 44.0699 35.6326 43.539 35.1017C43.0082 34.5709 43.0082 33.7103 43.539 33.1794C44.0699 32.6486 44.9305 32.6486 45.4613 33.1794Z" fill="#79296B"/>
<path d="M37.772 10.1115C38.3029 10.6423 38.3029 11.503 37.772 12.0338C37.2412 12.5647 36.3805 12.5647 35.8497 12.0338C35.3189 11.503 35.3189 10.6423 35.8497 10.1115C36.3805 9.58067 37.2412 9.58067 37.772 10.1115Z" fill="#79296B"/>
<path d="M53.1506 10.1115C53.6815 10.6423 53.6815 11.503 53.1506 12.0338C52.6198 12.5647 51.7592 12.5647 51.2283 12.0338C50.6975 11.503 50.6975 10.6423 51.2283 10.1115C51.7592 9.58067 52.6198 9.58067 53.1506 10.1115Z" fill="#79296B"/>
<path d="M33.9274 15.8785C34.4582 16.4093 34.4582 17.27 33.9274 17.8008C33.3966 18.3316 32.5359 18.3316 32.0051 17.8008C31.4742 17.27 31.4742 16.4093 32.0051 15.8785C32.5359 15.3476 33.3966 15.3476 33.9274 15.8785Z" stroke="#79296B"/>
<path d="M41.6167 15.8785C42.1475 16.4093 42.1475 17.27 41.6167 17.8008C41.0859 18.3316 40.2252 18.3316 39.6944 17.8008C39.1635 17.27 39.1635 16.4093 39.6944 15.8785C40.2252 15.3476 41.0859 15.3476 41.6167 15.8785Z" stroke="#79296B"/>
<path d="M49.306 15.8785C49.8368 16.4093 49.8368 17.27 49.306 17.8008C48.7752 18.3316 47.9145 18.3316 47.3837 17.8008C46.8528 17.27 46.8528 16.4093 47.3837 15.8785C47.9145 15.3476 48.7752 15.3476 49.306 15.8785Z" stroke="#79296B"/>
<path d="M56.9953 15.8785C57.5261 16.4093 57.5261 17.27 56.9953 17.8008C56.4645 18.3316 55.6038 18.3316 55.073 17.8008C54.5421 17.27 54.5421 16.4093 55.073 15.8785C55.6038 15.3476 56.4645 15.3476 56.9953 15.8785Z" stroke="#79296B"/>
<path d="M37.772 21.6455C38.3029 22.1763 38.3029 23.037 37.772 23.5678C37.2412 24.0986 36.3805 24.0986 35.8497 23.5678C35.3189 23.037 35.3189 22.1763 35.8497 21.6455C36.3805 21.1146 37.2412 21.1146 37.772 21.6455Z" stroke="#79296B"/>
<path d="M45.4613 21.6455C45.9922 22.1763 45.9922 23.037 45.4613 23.5678C44.9305 24.0986 44.0699 24.0986 43.539 23.5678C43.0082 23.037 43.0082 22.1763 43.539 21.6455C44.0699 21.1146 44.9305 21.1146 45.4613 21.6455Z" stroke="#79296B"/>
<path d="M53.1506 21.6455C53.6815 22.1763 53.6815 23.037 53.1506 23.5678C52.6198 24.0986 51.7592 24.0986 51.2283 23.5678C50.6975 23.037 50.6975 22.1763 51.2283 21.6455C51.7592 21.1146 52.6198 21.1146 53.1506 21.6455Z" stroke="#79296B"/>
<path d="M49.306 27.4124C49.8368 27.9433 49.8368 28.8039 49.306 29.3348C48.7752 29.8656 47.9145 29.8656 47.3837 29.3348C46.8528 28.8039 46.8528 27.9433 47.3837 27.4124C47.9145 26.8816 48.7752 26.8816 49.306 27.4124Z" stroke="#79296B"/>
<path d="M41.6167 27.4124C42.1475 27.9433 42.1475 28.8039 41.6167 29.3348C41.0859 29.8656 40.2252 29.8656 39.6944 29.3348C39.1635 28.8039 39.1635 27.9433 39.6944 27.4124C40.2252 26.8816 41.0859 26.8816 41.6167 27.4124Z" stroke="#79296B"/>
<path d="M45.4613 33.1794C45.9922 33.7103 45.9922 34.5709 45.4613 35.1017C44.9305 35.6326 44.0699 35.6326 43.539 35.1017C43.0082 34.5709 43.0082 33.7103 43.539 33.1794C44.0699 32.6486 44.9305 32.6486 45.4613 33.1794Z" stroke="#79296B"/>
<path d="M37.772 10.1115C38.3029 10.6423 38.3029 11.503 37.772 12.0338C37.2412 12.5647 36.3805 12.5647 35.8497 12.0338C35.3189 11.503 35.3189 10.6423 35.8497 10.1115C36.3805 9.58067 37.2412 9.58067 37.772 10.1115Z" stroke="#79296B"/>
<path d="M53.1506 10.1115C53.6815 10.6423 53.6815 11.503 53.1506 12.0338C52.6198 12.5647 51.7592 12.5647 51.2283 12.0338C50.6975 11.503 50.6975 10.6423 51.2283 10.1115C51.7592 9.58067 52.6198 9.58067 53.1506 10.1115Z" stroke="#79296B"/>
<path d="M33.9272 0.5C38.5973 2.46293 41.9665 3.35333 44.5 12.9951C46.8794 8.792 48.1504 7.19663 50.267 6.26698" stroke="#0E7C54"/>
<path d="M13.41 42.88V43.18C13.09 43.19 12.85 43.23 12.69 43.3C12.53 43.36 12.42 43.48 12.36 43.66C12.31 43.83 12.285 44.1 12.285 44.47V51.91C12.285 52.27 12.31 52.54 12.36 52.72C12.42 52.9 12.53 53.02 12.69 53.08C12.85 53.14 13.09 53.18 13.41 53.2V53.5C13.13 53.48 12.775 53.47 12.345 53.47C11.925 53.46 11.495 53.455 11.055 53.455C10.575 53.455 10.125 53.46 9.705 53.47C9.285 53.47 8.945 53.48 8.685 53.5V53.2C9.025 53.18 9.28 53.14 9.45 53.08C9.63 53.02 9.75 52.9 9.81 52.72C9.87 52.54 9.9 52.27 9.9 51.91V43.795H10.005L6.285 53.515H6.045L1.995 43.855V51.04C1.995 51.59 2.025 52.015 2.085 52.315C2.145 52.605 2.275 52.815 2.475 52.945C2.685 53.065 3.01 53.15 3.45 53.2V53.5C3.26 53.48 3.01 53.47 2.7 53.47C2.39 53.46 2.1 53.455 1.83 53.455C1.6 53.455 1.365 53.46 1.125 53.47C0.885 53.47 0.685 53.48 0.525 53.5V53.2C0.845 53.15 1.085 53.065 1.245 52.945C1.405 52.825 1.51 52.63 1.56 52.36C1.62 52.08 1.65 51.7 1.65 51.22V44.47C1.65 44.1 1.62 43.83 1.56 43.66C1.51 43.48 1.4 43.36 1.23 43.3C1.07 43.23 0.835 43.19 0.525 43.18V42.88C0.685 42.89 0.885 42.9 1.125 42.91C1.365 42.92 1.6 42.925 1.83 42.925C2.26 42.925 2.68 42.92 3.09 42.91C3.51 42.9 3.88 42.89 4.2 42.88L7.35 50.485L6.975 50.83L9.99 42.925C10.16 42.925 10.335 42.925 10.515 42.925C10.695 42.925 10.875 42.925 11.055 42.925C11.495 42.925 11.925 42.92 12.345 42.91C12.775 42.9 13.13 42.89 13.41 42.88ZM17.853 45.535C18.733 45.535 19.423 45.795 19.923 46.315C20.423 46.835 20.673 47.685 20.673 48.865H15.738L15.708 48.58H18.783C18.793 48.09 18.763 47.64 18.693 47.23C18.623 46.81 18.513 46.475 18.363 46.225C18.213 45.975 18.013 45.85 17.763 45.85C17.413 45.85 17.113 46.07 16.863 46.51C16.623 46.95 16.478 47.68 16.428 48.7L16.473 48.79C16.463 48.91 16.453 49.035 16.443 49.165C16.443 49.295 16.443 49.43 16.443 49.57C16.443 50.26 16.538 50.82 16.728 51.25C16.928 51.68 17.178 51.995 17.478 52.195C17.778 52.385 18.083 52.48 18.393 52.48C18.603 52.48 18.818 52.45 19.038 52.39C19.268 52.32 19.498 52.2 19.728 52.03C19.958 51.85 20.173 51.6 20.373 51.28L20.643 51.37C20.523 51.75 20.333 52.12 20.073 52.48C19.813 52.84 19.483 53.135 19.083 53.365C18.683 53.595 18.203 53.71 17.643 53.71C16.963 53.71 16.363 53.565 15.843 53.275C15.323 52.985 14.913 52.545 14.613 51.955C14.323 51.365 14.178 50.615 14.178 49.705C14.178 48.775 14.333 48 14.643 47.38C14.963 46.76 15.398 46.3 15.948 46C16.508 45.69 17.143 45.535 17.853 45.535ZM29.0116 45.58V51.865C29.0116 52.315 29.0816 52.65 29.2216 52.87C29.3616 53.08 29.6116 53.185 29.9716 53.185V53.5C29.6616 53.47 29.3516 53.455 29.0416 53.455C28.6216 53.455 28.2316 53.47 27.8716 53.5C27.5116 53.53 27.1716 53.585 26.8516 53.665V52.315C26.6116 52.815 26.2766 53.175 25.8466 53.395C25.4266 53.605 24.9566 53.71 24.4366 53.71C24.0166 53.71 23.6766 53.655 23.4166 53.545C23.1566 53.435 22.9516 53.295 22.8016 53.125C22.6316 52.935 22.5116 52.685 22.4416 52.375C22.3716 52.065 22.3366 51.665 22.3366 51.175V47.38C22.3366 46.93 22.2666 46.6 22.1266 46.39C21.9966 46.17 21.7466 46.06 21.3766 46.06V45.745C21.6966 45.775 22.0066 45.79 22.3066 45.79C22.7266 45.79 23.1166 45.775 23.4766 45.745C23.8466 45.705 24.1866 45.65 24.4966 45.58V51.79C24.4966 52.04 24.5166 52.26 24.5566 52.45C24.6066 52.64 24.6966 52.79 24.8266 52.9C24.9566 53 25.1466 53.05 25.3966 53.05C25.6666 53.05 25.9066 52.975 26.1166 52.825C26.3366 52.675 26.5116 52.47 26.6416 52.21C26.7816 51.94 26.8516 51.64 26.8516 51.31V47.38C26.8516 46.93 26.7816 46.6 26.6416 46.39C26.5116 46.17 26.2616 46.06 25.8916 46.06V45.745C26.2116 45.775 26.5216 45.79 26.8216 45.79C27.2416 45.79 27.6316 45.775 27.9916 45.745C28.3616 45.705 28.7016 45.65 29.0116 45.58ZM33.6083 45.535C34.0283 45.535 34.3933 45.59 34.7033 45.7C35.0233 45.8 35.2533 45.9 35.3933 46C35.7333 46.23 35.9433 46.08 36.0233 45.55H36.3383C36.3183 45.83 36.3033 46.175 36.2933 46.585C36.2833 46.985 36.2783 47.52 36.2783 48.19H35.9633C35.9133 47.82 35.8183 47.455 35.6783 47.095C35.5383 46.735 35.3333 46.44 35.0633 46.21C34.8033 45.98 34.4633 45.865 34.0433 45.865C33.7533 45.865 33.5083 45.95 33.3083 46.12C33.1083 46.28 33.0083 46.515 33.0083 46.825C33.0083 47.125 33.0983 47.39 33.2783 47.62C33.4583 47.84 33.6883 48.055 33.9683 48.265C34.2583 48.465 34.5583 48.68 34.8683 48.91C35.1983 49.16 35.4983 49.41 35.7683 49.66C36.0383 49.9 36.2533 50.165 36.4133 50.455C36.5733 50.745 36.6533 51.09 36.6533 51.49C36.6533 51.94 36.5233 52.335 36.2633 52.675C36.0033 53.005 35.6583 53.26 35.2283 53.44C34.8083 53.62 34.3383 53.71 33.8183 53.71C33.5183 53.71 33.2483 53.68 33.0083 53.62C32.7783 53.56 32.5783 53.485 32.4083 53.395C32.2783 53.335 32.1533 53.28 32.0333 53.23C31.9233 53.17 31.8183 53.12 31.7183 53.08C31.6183 53.05 31.5283 53.085 31.4483 53.185C31.3783 53.285 31.3233 53.425 31.2833 53.605H30.9683C30.9883 53.285 31.0033 52.895 31.0133 52.435C31.0233 51.975 31.0283 51.365 31.0283 50.605H31.3433C31.4033 51.145 31.5133 51.625 31.6733 52.045C31.8333 52.455 32.0483 52.78 32.3183 53.02C32.5983 53.25 32.9483 53.365 33.3683 53.365C33.5383 53.365 33.7033 53.33 33.8633 53.26C34.0233 53.19 34.1533 53.075 34.2533 52.915C34.3633 52.755 34.4183 52.55 34.4183 52.3C34.4183 51.86 34.2733 51.495 33.9833 51.205C33.7033 50.915 33.3433 50.6 32.9033 50.26C32.5833 50 32.2783 49.745 31.9883 49.495C31.7083 49.235 31.4783 48.955 31.2983 48.655C31.1183 48.345 31.0283 47.995 31.0283 47.605C31.0283 47.155 31.1483 46.775 31.3883 46.465C31.6283 46.155 31.9433 45.925 32.3333 45.775C32.7333 45.615 33.1583 45.535 33.6083 45.535ZM50.3067 42.88V43.18C50.0867 43.26 49.8517 43.435 49.6017 43.705C49.3617 43.975 49.1367 44.395 48.9267 44.965L45.7617 53.53C45.6817 53.52 45.5967 53.515 45.5067 53.515C45.4167 53.515 45.3267 53.515 45.2367 53.515C45.1567 53.515 45.0717 53.515 44.9817 53.515C44.8917 53.515 44.8067 53.52 44.7267 53.53L40.9017 44.14C40.7617 43.78 40.6067 43.535 40.4367 43.405C40.2667 43.265 40.1067 43.19 39.9567 43.18V42.88C40.2567 42.89 40.6067 42.9 41.0067 42.91C41.4167 42.92 41.8267 42.925 42.2367 42.925C42.6967 42.925 43.1267 42.92 43.5267 42.91C43.9367 42.9 44.2667 42.89 44.5167 42.88V43.18C44.1967 43.19 43.9467 43.23 43.7667 43.3C43.5867 43.36 43.4867 43.48 43.4667 43.66C43.4467 43.83 43.5067 44.09 43.6467 44.44L46.3767 51.385L46.0617 51.76L48.1317 46.18C48.4017 45.43 48.5417 44.84 48.5517 44.41C48.5617 43.98 48.4567 43.67 48.2367 43.48C48.0167 43.29 47.7017 43.19 47.2917 43.18V42.88C47.6317 42.89 47.9517 42.9 48.2517 42.91C48.5517 42.92 48.8567 42.925 49.1667 42.925C49.3867 42.925 49.5917 42.92 49.7817 42.91C49.9817 42.9 50.1567 42.89 50.3067 42.88ZM52.0268 41.875C52.4468 41.875 52.7768 41.98 53.0168 42.19C53.2668 42.39 53.3918 42.67 53.3918 43.03C53.3918 43.39 53.2668 43.675 53.0168 43.885C52.7768 44.085 52.4468 44.185 52.0268 44.185C51.6068 44.185 51.2718 44.085 51.0218 43.885C50.7818 43.675 50.6618 43.39 50.6618 43.03C50.6618 42.67 50.7818 42.39 51.0218 42.19C51.2718 41.98 51.6068 41.875 52.0268 41.875ZM53.1968 45.58V52.105C53.1968 52.525 53.2668 52.81 53.4068 52.96C53.5568 53.11 53.8068 53.185 54.1568 53.185V53.5C53.9768 53.49 53.6968 53.48 53.3168 53.47C52.9368 53.45 52.5518 53.44 52.1618 53.44C51.7718 53.44 51.3768 53.45 50.9768 53.47C50.5768 53.48 50.2768 53.49 50.0768 53.5V53.185C50.4268 53.185 50.6718 53.11 50.8118 52.96C50.9618 52.81 51.0368 52.525 51.0368 52.105V47.38C51.0368 46.93 50.9668 46.6 50.8268 46.39C50.6968 46.17 50.4468 46.06 50.0768 46.06V45.745C50.3968 45.775 50.7068 45.79 51.0068 45.79C51.4268 45.79 51.8168 45.775 52.1768 45.745C52.5468 45.705 52.8868 45.65 53.1968 45.58ZM60.3882 45.535C60.8082 45.535 61.1482 45.59 61.4082 45.7C61.6782 45.8 61.8882 45.94 62.0382 46.12C62.1982 46.31 62.3132 46.555 62.3832 46.855C62.4632 47.155 62.5032 47.56 62.5032 48.07V52.105C62.5032 52.525 62.5732 52.81 62.7132 52.96C62.8632 53.11 63.1132 53.185 63.4632 53.185V53.5C63.2732 53.49 62.9882 53.48 62.6082 53.47C62.2282 53.45 61.8532 53.44 61.4832 53.44C61.1032 53.44 60.7282 53.45 60.3582 53.47C59.9982 53.48 59.7232 53.49 59.5332 53.5V53.185C59.8332 53.185 60.0432 53.11 60.1632 52.96C60.2832 52.81 60.3432 52.525 60.3432 52.105V47.44C60.3432 47.19 60.3182 46.975 60.2682 46.795C60.2182 46.605 60.1282 46.46 59.9982 46.36C59.8682 46.25 59.6732 46.195 59.4132 46.195C59.1432 46.195 58.8932 46.27 58.6632 46.42C58.4432 46.57 58.2632 46.78 58.1232 47.05C57.9932 47.31 57.9282 47.605 57.9282 47.935V52.105C57.9282 52.525 57.9882 52.81 58.1082 52.96C58.2382 53.11 58.4482 53.185 58.7382 53.185V53.5C58.5582 53.49 58.2932 53.48 57.9432 53.47C57.6032 53.45 57.2482 53.44 56.8782 53.44C56.4982 53.44 56.1082 53.45 55.7082 53.47C55.3082 53.48 55.0082 53.49 54.8082 53.5V53.185C55.1582 53.185 55.4032 53.11 55.5432 52.96C55.6932 52.81 55.7682 52.525 55.7682 52.105V47.38C55.7682 46.93 55.6982 46.6 55.5582 46.39C55.4282 46.17 55.1782 46.06 54.8082 46.06V45.745C55.1282 45.775 55.4382 45.79 55.7382 45.79C56.1582 45.79 56.5482 45.775 56.9082 45.745C57.2782 45.705 57.6182 45.65 57.9282 45.58V46.93C58.1782 46.42 58.5182 46.06 58.9482 45.85C59.3782 45.64 59.8582 45.535 60.3882 45.535ZM67.0671 41.77V46.93C67.3171 46.41 67.6521 46.05 68.0721 45.85C68.5021 45.64 68.9821 45.535 69.5121 45.535C69.9421 45.535 70.2871 45.59 70.5471 45.7C70.8071 45.8 71.0121 45.94 71.1621 46.12C71.3321 46.31 71.4521 46.555 71.5221 46.855C71.6021 47.155 71.6421 47.56 71.6421 48.07V52.105C71.6421 52.525 71.7121 52.81 71.8521 52.96C72.0021 53.11 72.2521 53.185 72.6021 53.185V53.5C72.4121 53.49 72.1221 53.48 71.7321 53.47C71.3521 53.45 70.9821 53.44 70.6221 53.44C70.2321 53.44 69.8521 53.45 69.4821 53.47C69.1221 53.48 68.8521 53.49 68.6721 53.5V53.185C68.9721 53.185 69.1821 53.11 69.3021 52.96C69.4221 52.81 69.4821 52.525 69.4821 52.105V47.44C69.4821 47.19 69.4571 46.975 69.4071 46.795C69.3571 46.605 69.2621 46.46 69.1221 46.36C68.9921 46.25 68.8021 46.195 68.5521 46.195C68.2821 46.195 68.0321 46.27 67.8021 46.42C67.5821 46.56 67.4021 46.76 67.2621 47.02C67.1321 47.28 67.0671 47.58 67.0671 47.92V52.105C67.0671 52.525 67.1271 52.81 67.2471 52.96C67.3671 53.11 67.5771 53.185 67.8771 53.185V53.5C67.6971 53.49 67.4321 53.48 67.0821 53.47C66.7321 53.45 66.3771 53.44 66.0171 53.44C65.6271 53.44 65.2321 53.45 64.8321 53.47C64.4421 53.48 64.1471 53.49 63.9471 53.5V53.185C64.2971 53.185 64.5421 53.11 64.6821 52.96C64.8321 52.81 64.9071 52.525 64.9071 52.105V43.57C64.9071 43.12 64.8371 42.79 64.6971 42.58C64.5671 42.36 64.3171 42.25 63.9471 42.25V41.935C64.2671 41.965 64.5771 41.98 64.8771 41.98C65.2871 41.98 65.6771 41.965 66.0471 41.935C66.4171 41.895 66.7571 41.84 67.0671 41.77ZM77.0181 45.535C77.7481 45.535 78.3881 45.67 78.9381 45.94C79.4881 46.21 79.9181 46.645 80.2281 47.245C80.5381 47.845 80.6931 48.64 80.6931 49.63C80.6931 50.62 80.5381 51.415 80.2281 52.015C79.9181 52.605 79.4881 53.035 78.9381 53.305C78.3881 53.575 77.7481 53.71 77.0181 53.71C76.3081 53.71 75.6731 53.575 75.1131 53.305C74.5631 53.035 74.1281 52.605 73.8081 52.015C73.4981 51.415 73.3431 50.62 73.3431 49.63C73.3431 48.64 73.4981 47.845 73.8081 47.245C74.1281 46.645 74.5631 46.21 75.1131 45.94C75.6731 45.67 76.3081 45.535 77.0181 45.535ZM77.0181 45.835C76.6181 45.835 76.2831 46.135 76.0131 46.735C75.7431 47.325 75.6081 48.29 75.6081 49.63C75.6081 50.97 75.7431 51.935 76.0131 52.525C76.2831 53.115 76.6181 53.41 77.0181 53.41C77.4281 53.41 77.7631 53.115 78.0231 52.525C78.2931 51.935 78.4281 50.97 78.4281 49.63C78.4281 48.29 78.2931 47.325 78.0231 46.735C77.7631 46.135 77.4281 45.835 77.0181 45.835ZM84.5995 45.535C85.0195 45.535 85.3845 45.59 85.6945 45.7C86.0145 45.8 86.2445 45.9 86.3845 46C86.7245 46.23 86.9345 46.08 87.0145 45.55H87.3295C87.3095 45.83 87.2945 46.175 87.2845 46.585C87.2745 46.985 87.2695 47.52 87.2695 48.19H86.9545C86.9045 47.82 86.8095 47.455 86.6695 47.095C86.5295 46.735 86.3245 46.44 86.0545 46.21C85.7945 45.98 85.4545 45.865 85.0345 45.865C84.7445 45.865 84.4995 45.95 84.2995 46.12C84.0995 46.28 83.9995 46.515 83.9995 46.825C83.9995 47.125 84.0895 47.39 84.2695 47.62C84.4495 47.84 84.6795 48.055 84.9595 48.265C85.2495 48.465 85.5495 48.68 85.8595 48.91C86.1895 49.16 86.4895 49.41 86.7595 49.66C87.0295 49.9 87.2445 50.165 87.4045 50.455C87.5645 50.745 87.6445 51.09 87.6445 51.49C87.6445 51.94 87.5145 52.335 87.2545 52.675C86.9945 53.005 86.6495 53.26 86.2195 53.44C85.7995 53.62 85.3295 53.71 84.8095 53.71C84.5095 53.71 84.2395 53.68 83.9995 53.62C83.7695 53.56 83.5695 53.485 83.3995 53.395C83.2695 53.335 83.1445 53.28 83.0245 53.23C82.9145 53.17 82.8095 53.12 82.7095 53.08C82.6095 53.05 82.5195 53.085 82.4395 53.185C82.3695 53.285 82.3145 53.425 82.2745 53.605H81.9595C81.9795 53.285 81.9945 52.895 82.0045 52.435C82.0145 51.975 82.0195 51.365 82.0195 50.605H82.3345C82.3945 51.145 82.5045 51.625 82.6645 52.045C82.8245 52.455 83.0395 52.78 83.3095 53.02C83.5895 53.25 83.9395 53.365 84.3595 53.365C84.5295 53.365 84.6945 53.33 84.8545 53.26C85.0145 53.19 85.1445 53.075 85.2445 52.915C85.3545 52.755 85.4095 52.55 85.4095 52.3C85.4095 51.86 85.2645 51.495 84.9745 51.205C84.6945 50.915 84.3345 50.6 83.8945 50.26C83.5745 50 83.2695 49.745 82.9795 49.495C82.6995 49.235 82.4695 48.955 82.2895 48.655C82.1095 48.345 82.0195 47.995 82.0195 47.605C82.0195 47.155 82.1395 46.775 82.3795 46.465C82.6195 46.155 82.9345 45.925 83.3245 45.775C83.7245 45.615 84.1495 45.535 84.5995 45.535Z" fill="black"/>
</svg>
